<svg xmlns="http://www.w3.org/2000/svg" xmlns:xlink="http://www.w3.org/1999/xlink" width="500" zoomAndPan="magnify" viewBox="0 0 375 374.999991" height="500" preserveAspectRatio="xMidYMid meet" version="1.0"><defs><g/><clipPath id="bcaf71fd2b"><path d="M 99 135 L 302.988281 135 L 302.988281 171 L 99 171 Z M 99 135 " clip-rule="nonzero"/></clipPath><clipPath id="72ee30d331"><path d="M 72 151 L 176 151 L 176 174.851562 L 72 174.851562 Z M 72 151 " clip-rule="nonzero"/></clipPath></defs><g clip-path="url(#bcaf71fd2b)"><path fill="#2563eb" d="M 295.253906 142.0625 C 287.851562 139.496094 279.960938 139.691406 271.800781 142.644531 C 269.535156 143.464844 267.253906 144.324219 264.835938 145.238281 L 264.726562 145.277344 C 250.839844 150.519531 235.101562 156.460938 217.269531 156.460938 C 215.007812 156.460938 212.726562 156.363281 210.492188 156.171875 C 199.765625 155.257812 189.757812 150.644531 180.078125 146.183594 C 169.660156 141.378906 158.890625 136.417969 146.828125 135.714844 C 135.085938 135.15625 123.398438 135.746094 111.769531 137.484375 L 99.710938 139.335938 L 111.890625 140.019531 C 134.761719 141.304688 154.386719 151.3125 167.375 157.9375 C 184.273438 166.554688 197.617188 170.589844 209.371094 170.628906 C 209.519531 170.628906 209.667969 170.628906 209.816406 170.628906 C 233.429688 170.628906 245.5625 163.492188 257.332031 156.574219 C 267.851562 150.386719 277.785156 144.546875 294.695312 144.546875 L 302.417969 144.546875 Z M 295.253906 142.0625 " fill-opacity="1" fill-rule="nonzero"/></g><path fill="#2563eb" d="M 144.328125 124.253906 C 163.726562 124.253906 174.078125 129.007812 181.636719 132.476562 L 182.546875 132.894531 C 183.933594 133.527344 185.433594 134.316406 187.171875 135.230469 C 195 139.34375 206.066406 145.160156 222.628906 145.160156 C 226.851562 145.148438 231.046875 144.796875 235.214844 144.105469 L 243.332031 142.78125 L 235.195312 141.582031 C 217.34375 138.949219 209.058594 133.316406 201.039062 127.867188 C 194.9375 123.71875 189.175781 119.800781 179.328125 117.332031 C 163.535156 113.371094 146.601562 115.144531 126.042969 122.910156 L 116.273438 126.601562 L 126.640625 125.375 C 132.515625 124.65625 138.410156 124.28125 144.328125 124.253906 Z M 182.171875 131.316406 Z M 182.171875 131.316406 " fill-opacity="1" fill-rule="nonzero"/><g clip-path="url(#72ee30d331)"><path fill="#2563eb" d="M 157.871094 166.628906 C 147.25 161.296875 136.265625 155.78125 120.070312 152.664062 C 107.316406 150.210938 93.660156 151.925781 84.453125 153.800781 L 72.535156 156.222656 L 84.695312 156.328125 C 100.769531 156.46875 109.332031 160.46875 116.902344 164.003906 C 118.796875 164.886719 120.585938 165.722656 122.417969 166.460938 C 139.214844 173.230469 154.773438 174.441406 169.078125 174.742188 L 175.398438 174.875 L 169.621094 172.296875 C 165.519531 170.46875 161.632812 168.515625 157.871094 166.628906 Z M 157.871094 166.628906 " fill-opacity="1" fill-rule="nonzero"/></g><g fill="#2563eb" fill-opacity="1"><g transform="translate(127.620122, 219.028682)"><g><path d="M 22.671875 -24.09375 L 22.671875 0 L 18.453125 0 L 18.453125 -10.15625 L 18.609375 -14.171875 L 17.40625 -12.34375 L 12.75 -6.859375 L 8.09375 -12.34375 L 6.875 -14.171875 L 7.0625 -10.15625 L 7.0625 0 L 2.859375 0 L 2.859375 -24.09375 L 3.1875 -24.09375 L 12.78125 -12.796875 L 22.296875 -24.09375 Z M 22.671875 -24.09375 "/></g></g></g><g fill="#2563eb" fill-opacity="1"><g transform="translate(153.813166, 219.028682)"><g><path d="M 13.90625 -3.4375 L 5.4375 -3.4375 L 4.1875 0 L -0.578125 0 L 9.453125 -24.09375 L 9.78125 -24.09375 L 19.84375 0 L 15.21875 0 Z M 12.640625 -6.734375 L 10.15625 -13.1875 L 9.578125 -15.09375 L 9.046875 -13.1875 L 6.65625 -6.734375 Z M 12.640625 -6.734375 "/></g></g></g><g fill="#2563eb" fill-opacity="1"><g transform="translate(173.755275, 219.028682)"><g><path d="M 13.25 0 L 7.171875 -8.5625 L 7.171875 0 L 2.859375 0 L 2.859375 -23.6875 L 9.453125 -23.6875 C 15.066406 -23.6875 17.875 -21.171875 17.875 -16.140625 C 17.875 -15.015625 17.691406 -13.910156 17.328125 -12.828125 C 16.960938 -11.753906 16.367188 -10.796875 15.546875 -9.953125 C 14.734375 -9.117188 13.6875 -8.539062 12.40625 -8.21875 L 18.515625 0 Z M 8.96875 -10.703125 C 9.9375 -10.703125 10.757812 -10.929688 11.4375 -11.390625 C 12.125 -11.847656 12.644531 -12.457031 13 -13.21875 C 13.351562 -13.988281 13.53125 -14.828125 13.53125 -15.734375 C 13.53125 -17.296875 13.171875 -18.441406 12.453125 -19.171875 C 11.734375 -19.910156 10.539062 -20.28125 8.875 -20.28125 L 7.171875 -20.28125 L 7.171875 -10.703125 Z M 8.96875 -10.703125 "/></g></g></g><g fill="#2563eb" fill-opacity="1"><g transform="translate(194.037111, 219.028682)"><g><path d="M 10.671875 0.4375 C 8.097656 0.4375 6.050781 -0.25 4.53125 -1.625 C 3.007812 -3 2.25 -5.28125 2.25 -8.46875 L 2.25 -23.6875 L 6.65625 -23.6875 L 6.65625 -7.984375 C 6.65625 -6.191406 7.046875 -4.957031 7.828125 -4.28125 C 8.617188 -3.601562 9.546875 -3.265625 10.609375 -3.265625 C 11.671875 -3.265625 12.570312 -3.597656 13.3125 -4.265625 C 14.0625 -4.929688 14.4375 -6.171875 14.4375 -7.984375 L 14.4375 -23.6875 L 18.859375 -23.6875 L 18.859375 -8.46875 C 18.859375 -5.28125 18.113281 -3 16.625 -1.625 C 15.144531 -0.25 13.160156 0.4375 10.671875 0.4375 Z M 10.671875 0.4375 "/></g></g></g><g fill="#2563eb" fill-opacity="1"><g transform="translate(215.813729, 219.028682)"><g><path d="M 7.203125 -19.953125 L 7.203125 -13.734375 L 14.203125 -13.734375 L 14.203125 -9.921875 L 7.203125 -9.921875 L 7.203125 0 L 2.859375 0 L 2.859375 -23.6875 L 15.21875 -23.6875 L 15.21875 -19.953125 Z M 7.203125 -19.953125 "/></g></g></g><g fill="#2563eb" fill-opacity="1"><g transform="translate(232.256673, 219.028682)"><g><path d="M 14.234375 -3.734375 L 14.234375 0 L 2.859375 0 L 2.859375 -23.6875 L 7.171875 -23.6875 L 7.171875 -3.734375 Z M 14.234375 -3.734375 "/></g></g></g><g fill="#93c5fd" fill-opacity="1"><g transform="translate(142.71973, 254.54808)"><g><path d="M 4.625 -16.453125 L 4.765625 -13.734375 C 7.179688 -15.835938 9.488281 -16.890625 11.6875 -16.890625 C 14.019531 -16.890625 15.414062 -15.859375 15.875 -13.796875 C 18.269531 -15.859375 20.554688 -16.890625 22.734375 -16.890625 C 24.140625 -16.890625 25.210938 -16.503906 25.953125 -15.734375 C 26.703125 -14.960938 27.078125 -13.84375 27.078125 -12.375 L 27.078125 0 L 24.9375 0 L 24.9375 -11.796875 C 24.914062 -12.921875 24.671875 -13.738281 24.203125 -14.25 C 23.742188 -14.757812 23.015625 -15.015625 22.015625 -15.015625 C 21.109375 -15.015625 20.234375 -14.804688 19.390625 -14.390625 C 18.554688 -13.972656 17.425781 -13.234375 16 -12.171875 L 16 0 L 13.9375 0 L 13.9375 -11.796875 C 13.9375 -12.921875 13.695312 -13.738281 13.21875 -14.25 C 12.738281 -14.757812 12.003906 -15.015625 11.015625 -15.015625 C 10.128906 -15.015625 9.257812 -14.804688 8.40625 -14.390625 C 7.5625 -13.972656 6.425781 -13.242188 5 -12.203125 L 5 0 L 2.859375 0 L 2.859375 -16.453125 Z M 4.625 -16.453125 "/></g></g></g><g fill="#93c5fd" fill-opacity="1"><g transform="translate(173.19347, 254.54808)"><g><path d="M 3.75 -14.9375 C 4.894531 -16.238281 6.847656 -16.890625 9.609375 -16.890625 C 12.378906 -16.890625 14.328125 -16.238281 15.453125 -14.9375 C 16.585938 -13.632812 17.15625 -11.394531 17.15625 -8.21875 C 17.15625 -5.050781 16.585938 -2.820312 15.453125 -1.53125 C 14.328125 -0.238281 12.378906 0.40625 9.609375 0.40625 C 6.847656 0.40625 4.894531 -0.242188 3.75 -1.546875 C 2.613281 -2.847656 2.046875 -5.070312 2.046875 -8.21875 C 2.046875 -11.394531 2.613281 -13.632812 3.75 -14.9375 Z M 13.765625 -13.546875 C 12.992188 -14.523438 11.609375 -15.015625 9.609375 -15.015625 C 7.617188 -15.015625 6.238281 -14.523438 5.46875 -13.546875 C 4.695312 -12.578125 4.3125 -10.800781 4.3125 -8.21875 C 4.3125 -5.632812 4.695312 -3.851562 5.46875 -2.875 C 6.238281 -1.90625 7.617188 -1.421875 9.609375 -1.421875 C 11.609375 -1.421875 12.992188 -1.90625 13.765625 -2.875 C 14.535156 -3.851562 14.921875 -5.632812 14.921875 -8.21875 C 14.921875 -10.800781 14.535156 -12.578125 13.765625 -13.546875 Z M 13.765625 -13.546875 "/></g></g></g><g fill="#93c5fd" fill-opacity="1"><g transform="translate(193.067739, 254.54808)"><g><path d="M 3.75 -14.9375 C 4.894531 -16.238281 6.847656 -16.890625 9.609375 -16.890625 C 12.378906 -16.890625 14.328125 -16.238281 15.453125 -14.9375 C 16.585938 -13.632812 17.15625 -11.394531 17.15625 -8.21875 C 17.15625 -5.050781 16.585938 -2.820312 15.453125 -1.53125 C 14.328125 -0.238281 12.378906 0.40625 9.609375 0.40625 C 6.847656 0.40625 4.894531 -0.242188 3.75 -1.546875 C 2.613281 -2.847656 2.046875 -5.070312 2.046875 -8.21875 C 2.046875 -11.394531 2.613281 -13.632812 3.75 -14.9375 Z M 13.765625 -13.546875 C 12.992188 -14.523438 11.609375 -15.015625 9.609375 -15.015625 C 7.617188 -15.015625 6.238281 -14.523438 5.46875 -13.546875 C 4.695312 -12.578125 4.3125 -10.800781 4.3125 -8.21875 C 4.3125 -5.632812 4.695312 -3.851562 5.46875 -2.875 C 6.238281 -1.90625 7.617188 -1.421875 9.609375 -1.421875 C 11.609375 -1.421875 12.992188 -1.90625 13.765625 -2.875 C 14.535156 -3.851562 14.921875 -5.632812 14.921875 -8.21875 C 14.921875 -10.800781 14.535156 -12.578125 13.765625 -13.546875 Z M 13.765625 -13.546875 "/></g></g></g><g fill="#93c5fd" fill-opacity="1"><g transform="translate(212.942005, 254.54808)"><g><path d="M 14.78125 0 L 14.546875 -2.546875 C 12.304688 -0.578125 10.109375 0.40625 7.953125 0.40625 C 5.867188 0.40625 4.367188 -0.28125 3.453125 -1.65625 C 2.535156 -3.039062 2.078125 -5.242188 2.078125 -8.265625 C 2.078125 -11.390625 2.5625 -13.609375 3.53125 -14.921875 C 4.507812 -16.234375 6.070312 -16.890625 8.21875 -16.890625 C 10.300781 -16.890625 12.375 -16.359375 14.4375 -15.296875 C 14.351562 -16.046875 14.3125 -17.117188 14.3125 -18.515625 L 14.3125 -23.796875 L 16.453125 -23.796875 L 16.453125 0 Z M 14.3125 -4.109375 L 14.3125 -13.796875 C 11.976562 -14.585938 10.097656 -14.984375 8.671875 -14.984375 C 7.054688 -14.984375 5.925781 -14.5 5.28125 -13.53125 C 4.632812 -12.570312 4.3125 -10.828125 4.3125 -8.296875 C 4.3125 -5.734375 4.628906 -3.957031 5.265625 -2.96875 C 5.898438 -1.988281 7 -1.5 8.5625 -1.5 C 9.488281 -1.5 10.359375 -1.691406 11.171875 -2.078125 C 11.992188 -2.460938 13.039062 -3.140625 14.3125 -4.109375 Z M 14.3125 -4.109375 "/></g></g></g></svg>